# Blender 4.0.2
# www.blender.org
mtllib obstaculo1.mtl
o Cube
v 0.555570 1.387078 -0.831470
v 0.555570 -1.387078 -0.831470
v 0.382683 1.387078 -0.923880
v 0.382683 -1.387078 -0.923880
v 0.195090 1.387078 -0.980785
v 0.195090 -1.387078 -0.980785
v 0.000000 1.387078 -1.000000
v 0.000000 -1.387078 -1.000000
v 0.707107 -1.387078 -0.707107
v 0.707107 1.387078 -0.707107
v 0.831470 -1.387078 -0.555570
v 0.831470 1.387078 -0.555570
v 0.923880 -1.387078 -0.382683
v 0.923880 1.387078 -0.382683
v 0.980785 -1.387078 -0.195090
v 0.980785 1.387078 -0.195090
v 1.000000 -1.387078 0.000000
v 1.000000 1.387078 0.000000
v 0.980785 -1.387078 0.195090
v 0.980785 1.387078 0.195090
v 0.923880 -1.387078 0.382683
v 0.923880 1.387078 0.382683
v 0.831470 -1.387078 0.555570
v 0.831470 1.387078 0.555570
v 0.707107 -1.387078 0.707107
v 0.707107 1.387078 0.707107
v 0.555570 -1.387078 0.831470
v 0.555570 1.387078 0.831470
v 0.382683 -1.387078 0.923880
v 0.382683 1.387078 0.923880
v 0.195090 -1.387078 0.980785
v 0.195090 1.387078 0.980785
v 0.000000 -1.387078 1.000000
v 0.000000 1.387078 1.000000
v -0.195090 -1.387078 0.980785
v -0.195090 1.387078 0.980785
v -0.382683 -1.387078 0.923880
v -0.382683 1.387078 0.923880
v -0.555570 -1.387078 0.831470
v -0.555570 1.387078 0.831470
v -0.707107 -1.387078 0.707107
v -0.707107 1.387078 0.707107
v -0.831470 -1.387078 0.555570
v -0.831470 1.387078 0.555570
v -0.923880 -1.387078 0.382683
v -0.923880 1.387078 0.382683
v -0.980785 -1.387078 0.195090
v -0.980785 1.387078 0.195090
v -1.000000 -1.387078 0.000000
v -1.000000 1.387078 0.000000
v -0.980785 -1.387078 -0.195090
v -0.980785 1.387078 -0.195090
v -0.923880 -1.387078 -0.382683
v -0.923880 1.387078 -0.382683
v -0.831470 -1.387078 -0.555570
v -0.831470 1.387078 -0.555570
v -0.707107 -1.387078 -0.707107
v -0.707107 1.387078 -0.707107
v -0.555570 -1.387078 -0.831470
v -0.555570 1.387078 -0.831470
v -0.382683 -1.387078 -0.923880
v -0.382683 1.387078 -0.923880
v -0.195090 -1.387078 -0.980785
v -0.195090 1.387078 -0.980785
v 1.198227 0.462359 -2.991958
v 1.198227 -0.462359 -2.991958
v 0.576471 0.462359 -3.180566
v 0.576471 -0.462359 -3.180566
v 1.771240 0.462359 -2.685676
v 1.771240 -0.462359 -2.685676
v -0.070133 -0.462359 -3.244251
v -0.070133 0.462359 -3.244251
v 2.273490 0.462359 -2.273490
v 2.273490 -0.462359 -2.273490
v 2.685676 0.462359 -1.771240
v 2.685676 -0.462359 -1.771240
v 2.991958 0.462359 -1.198227
v 2.991958 -0.462359 -1.198227
v 3.180566 0.462359 -0.576471
v 3.180566 -0.462359 -0.576471
v 3.244251 0.462359 0.070133
v 3.244251 -0.462359 0.070133
v 3.180566 0.462359 0.716737
v 3.180566 -0.462359 0.716737
v 2.991958 0.462359 1.338493
v 2.991958 -0.462359 1.338493
v 2.685676 0.462359 1.911506
v 2.685676 -0.462359 1.911506
v 2.273490 0.462359 2.413756
v 2.273490 -0.462359 2.413756
v 1.771240 0.462359 2.825942
v 1.771240 -0.462359 2.825942
v 1.198227 0.462359 3.132224
v 1.198227 -0.462359 3.132224
v 0.576471 0.462359 3.320831
v 0.576471 -0.462359 3.320831
v -0.070133 0.462359 3.384516
v -0.070133 -0.462359 3.384516
v -0.716737 0.462359 3.320831
v -0.716737 -0.462359 3.320831
v -1.338493 0.462359 3.132224
v -1.338493 -0.462359 3.132224
v -1.911506 0.462359 2.825942
v -1.911506 -0.462359 2.825942
v -2.413756 0.462359 2.413756
v -2.413756 -0.462359 2.413756
v -2.825942 0.462359 1.911506
v -2.825942 -0.462359 1.911506
v -3.132224 0.462359 1.338493
v -3.132224 -0.462359 1.338493
v -3.320831 0.462359 0.716737
v -3.320831 -0.462359 0.716737
v -3.384516 0.462359 0.070133
v -3.384516 -0.462359 0.070133
v -3.320831 0.462359 -0.576471
v -3.320831 -0.462359 -0.576471
v -3.132224 0.462359 -1.198227
v -3.132224 -0.462359 -1.198227
v -2.825942 0.462359 -1.771240
v -2.825942 -0.462359 -1.771240
v -2.413756 0.462359 -2.273490
v -2.413756 -0.462359 -2.273490
v -1.911506 0.462359 -2.685676
v -1.911506 -0.462359 -2.685676
v -1.338493 0.462359 -2.991958
v -1.338493 -0.462359 -2.991958
v -0.716737 0.462359 -3.180566
v -0.716737 -0.462359 -3.180566
vn 0.1118 0.9229 -0.3686
vn 0.1821 0.9224 -0.3406
vn 0.0376 0.9235 -0.3817
vn 0.2454 0.9222 -0.2990
vn 0.2990 0.9222 -0.2454
vn 0.3406 0.9224 -0.1821
vn 0.3686 0.9229 -0.1118
vn 0.3817 0.9235 -0.0376
vn 0.3797 0.9244 0.0374
vn 0.3629 0.9253 0.1101
vn 0.3322 0.9264 0.1775
vn 0.2891 0.9275 0.2372
vn 0.2355 0.9285 0.2870
vn 0.1738 0.9296 0.3251
vn 0.1063 0.9305 0.3504
vn 0.0357 0.9314 0.3622
vn -0.0355 0.9321 0.3604
vn -0.1047 0.9327 0.3452
vn -0.1696 0.9330 0.3173
vn -0.2279 0.9332 0.2777
vn -0.2777 0.9332 0.2279
vn -0.3173 0.9330 0.1696
vn -0.3452 0.9327 0.1047
vn -0.3604 0.9321 0.0355
vn -0.3622 0.9314 -0.0357
vn -0.3504 0.9305 -0.1063
vn -0.3251 0.9296 -0.1738
vn -0.2870 0.9285 -0.2355
vn -0.2372 0.9275 -0.2891
vn -0.1775 0.9264 -0.3322
vn -0.0000 1.0000 -0.0000
vn -0.1101 0.9253 -0.3629
vn -0.0374 0.9244 -0.3797
vn -0.0000 -1.0000 -0.0000
vn -0.0374 -0.9244 -0.3797
vn -0.0980 -0.0000 -0.9952
vn -0.1101 -0.9253 -0.3629
vn -0.2903 -0.0000 -0.9569
vn -0.1775 -0.9264 -0.3322
vn -0.4714 -0.0000 -0.8819
vn -0.2372 -0.9275 -0.2891
vn -0.6344 -0.0000 -0.7730
vn -0.2870 -0.9285 -0.2355
vn -0.7730 -0.0000 -0.6344
vn -0.3251 -0.9296 -0.1738
vn -0.8819 -0.0000 -0.4714
vn -0.3504 -0.9305 -0.1063
vn -0.9569 -0.0000 -0.2903
vn -0.3622 -0.9314 -0.0357
vn -0.9952 -0.0000 -0.0980
vn -0.3604 -0.9321 0.0355
vn -0.9952 -0.0000 0.0980
vn -0.3452 -0.9327 0.1047
vn -0.9569 -0.0000 0.2903
vn -0.3173 -0.9330 0.1696
vn -0.8819 -0.0000 0.4714
vn -0.2777 -0.9332 0.2279
vn -0.7730 -0.0000 0.6344
vn -0.2279 -0.9332 0.2777
vn -0.6344 -0.0000 0.7730
vn -0.1696 -0.9330 0.3173
vn -0.4714 -0.0000 0.8819
vn -0.1047 -0.9327 0.3452
vn -0.2903 -0.0000 0.9569
vn -0.0355 -0.9321 0.3604
vn -0.0980 -0.0000 0.9952
vn 0.0357 -0.9314 0.3622
vn 0.0980 -0.0000 0.9952
vn 0.1063 -0.9305 0.3504
vn 0.2903 -0.0000 0.9569
vn 0.1738 -0.9296 0.3251
vn 0.4714 -0.0000 0.8819
vn 0.2355 -0.9285 0.2870
vn 0.6344 -0.0000 0.7730
vn 0.2891 -0.9275 0.2372
vn 0.7730 -0.0000 0.6344
vn 0.3322 -0.9264 0.1775
vn 0.8819 -0.0000 0.4714
vn 0.3629 -0.9253 0.1101
vn 0.9569 -0.0000 0.2903
vn 0.3797 -0.9244 0.0374
vn 0.9952 -0.0000 0.0980
vn 0.3817 -0.9235 -0.0376
vn 0.9952 -0.0000 -0.0980
vn 0.3686 -0.9229 -0.1118
vn 0.9569 -0.0000 -0.2903
vn 0.3406 -0.9224 -0.1821
vn 0.8819 -0.0000 -0.4714
vn 0.2990 -0.9222 -0.2454
vn 0.7730 -0.0000 -0.6344
vn 0.2454 -0.9222 -0.2990
vn 0.6344 -0.0000 -0.7730
vn 0.0376 -0.9235 -0.3817
vn 0.0980 -0.0000 -0.9952
vn 0.1821 -0.9224 -0.3406
vn 0.4714 -0.0000 -0.8819
vn 0.1118 -0.9229 -0.3686
vn 0.2903 -0.0000 -0.9569
vt 1.000000 0.914117
vt 1.000000 0.982463
vt 0.968750 0.982463
vt 0.968750 0.914117
vt 0.937500 0.982463
vt 0.937500 0.914117
vt 0.937500 0.914117
vt 0.906250 0.982463
vt 0.906250 0.914117
vt 0.875000 0.982463
vt 0.875000 0.914117
vt 0.843750 0.982463
vt 0.843750 0.914117
vt 0.812500 0.982463
vt 0.812500 0.914117
vt 0.781250 0.982463
vt 0.781250 0.914117
vt 0.750000 0.982463
vt 0.750000 0.914117
vt 0.718750 0.982463
vt 0.718750 0.914117
vt 0.687500 0.982463
vt 0.687500 0.914117
vt 0.656250 0.982463
vt 0.656250 0.914117
vt 0.625000 0.982463
vt 0.625000 0.914117
vt 0.593750 0.982463
vt 0.593750 0.914117
vt 0.562500 0.982463
vt 0.562500 0.914117
vt 0.531250 0.982463
vt 0.531250 0.914117
vt 0.500000 0.982463
vt 0.500000 0.914117
vt 0.468750 0.982463
vt 0.468750 0.914117
vt 0.437500 0.982463
vt 0.437500 0.914117
vt 0.406250 0.982463
vt 0.406250 0.914117
vt 0.375000 0.982463
vt 0.375000 0.914117
vt 0.343750 0.982463
vt 0.343750 0.914117
vt 0.312500 0.982463
vt 0.312500 0.914117
vt 0.281250 0.982463
vt 0.281250 0.914117
vt 0.250000 0.982463
vt 0.250000 0.914117
vt 0.218750 0.982463
vt 0.218750 0.914117
vt 0.187500 0.982463
vt 0.187500 0.914117
vt 0.156250 0.982463
vt 0.156250 0.914117
vt 0.125000 0.982463
vt 0.125000 0.914117
vt 0.093750 0.982463
vt 0.093750 0.914117
vt 0.062500 0.982463
vt 0.062500 0.914117
vt 0.598281 0.729367
vt 0.568245 0.754702
vt 0.535654 0.770303
vt 0.501761 0.775571
vt 0.467867 0.770303
vt 0.435276 0.754702
vt 0.405240 0.729367
vt 0.378914 0.695272
vt 0.357308 0.653727
vt 0.341254 0.606328
vt 0.331367 0.554898
vt 0.328029 0.501412
vt 0.331367 0.447927
vt 0.341254 0.396496
vt 0.357308 0.349098
vt 0.378914 0.307553
vt 0.405240 0.273458
vt 0.435276 0.248123
vt 0.467867 0.232521
vt 0.501761 0.227254
vt 0.535654 0.232521
vt 0.568245 0.248123
vt 0.598281 0.273458
vt 0.624607 0.307553
vt 0.646213 0.349098
vt 0.662268 0.396496
vt 0.672154 0.447927
vt 0.675492 0.501412
vt 0.672154 0.554898
vt 0.662268 0.606328
vt 0.646213 0.653727
vt 0.624607 0.695272
vt 0.031250 0.982463
vt 0.031250 0.914117
vt 0.000000 0.982463
vt 0.000000 0.914117
vt 0.535124 0.772237
vt 0.568898 0.756360
vt 0.600025 0.730576
vt 0.627307 0.695878
vt 0.649697 0.653597
vt 0.666335 0.605360
vt 0.676580 0.553020
vt 0.680040 0.498588
vt 0.676580 0.444155
vt 0.666335 0.391815
vt 0.649697 0.343578
vt 0.627307 0.301297
vt 0.600025 0.266599
vt 0.568898 0.240816
vt 0.535124 0.224938
vt 0.500000 0.219577
vt 0.464876 0.224938
vt 0.431102 0.240816
vt 0.399975 0.266599
vt 0.372693 0.301297
vt 0.350303 0.343578
vt 0.333665 0.391815
vt 0.323420 0.444155
vt 0.319960 0.498588
vt 0.323420 0.553020
vt 0.333665 0.605360
vt 0.350303 0.653597
vt 0.372693 0.695878
vt 0.399975 0.730576
vt 0.431102 0.756360
vt 0.464876 0.772237
vt 0.500000 0.777598
vt 0.031250 0.777424
vt 0.031250 0.845770
vt 0.000000 0.845770
vt 0.000000 0.777424
vt 0.062500 0.777424
vt 0.062500 0.845770
vt 0.093750 0.777424
vt 0.093750 0.845770
vt 0.125000 0.777424
vt 0.125000 0.845770
vt 0.156250 0.777424
vt 0.156250 0.845770
vt 0.187500 0.777424
vt 0.187500 0.845770
vt 0.218750 0.777424
vt 0.218750 0.845770
vt 0.250000 0.777424
vt 0.250000 0.845770
vt 0.281250 0.777424
vt 0.281250 0.845770
vt 0.312500 0.777424
vt 0.312500 0.845770
vt 0.343750 0.777424
vt 0.343750 0.845770
vt 0.375000 0.777424
vt 0.375000 0.845770
vt 0.406250 0.777424
vt 0.406250 0.845770
vt 0.437500 0.777424
vt 0.437500 0.845770
vt 0.468750 0.777424
vt 0.468750 0.845770
vt 0.500000 0.777424
vt 0.500000 0.845770
vt 0.531250 0.777424
vt 0.531250 0.845770
vt 0.562500 0.777424
vt 0.562500 0.845770
vt 0.593750 0.777424
vt 0.593750 0.845770
vt 0.625000 0.777424
vt 0.625000 0.845770
vt 0.656250 0.777424
vt 0.656250 0.845770
vt 0.687500 0.777424
vt 0.687500 0.845770
vt 0.718750 0.777424
vt 0.718750 0.845770
vt 0.750000 0.777424
vt 0.750000 0.845770
vt 0.781250 0.777424
vt 0.781250 0.845770
vt 0.812500 0.777424
vt 0.812500 0.845770
vt 0.843750 0.777424
vt 0.843750 0.845770
vt 0.875000 0.777424
vt 0.875000 0.845770
vt 0.906250 0.777424
vt 0.906250 0.845770
vt 0.937500 0.777424
vt 0.937500 0.845770
vt 0.968750 0.777424
vt 0.968750 0.845770
vt 0.937500 0.845770
vt 1.000000 0.777424
vt 1.000000 0.845770
s 0
usemtl Material.001
f 67/1/1 5/2/1 3/3/1 65/4/1
f 65/4/2 3/3/2 1/5/2 69/6/2
f 72/7/3 7/5/3 5/8/3 67/9/3
f 69/9/4 1/8/4 10/10/4 73/11/4
f 73/11/5 10/10/5 12/12/5 75/13/5
f 75/13/6 12/12/6 14/14/6 77/15/6
f 77/15/7 14/14/7 16/16/7 79/17/7
f 79/17/8 16/16/8 18/18/8 81/19/8
f 81/19/9 18/18/9 20/20/9 83/21/9
f 83/21/10 20/20/10 22/22/10 85/23/10
f 85/23/11 22/22/11 24/24/11 87/25/11
f 87/25/12 24/24/12 26/26/12 89/27/12
f 89/27/13 26/26/13 28/28/13 91/29/13
f 91/29/14 28/28/14 30/30/14 93/31/14
f 93/31/15 30/30/15 32/32/15 95/33/15
f 95/33/16 32/32/16 34/34/16 97/35/16
f 97/35/17 34/34/17 36/36/17 99/37/17
f 99/37/18 36/36/18 38/38/18 101/39/18
f 101/39/19 38/38/19 40/40/19 103/41/19
f 103/41/20 40/40/20 42/42/20 105/43/20
f 105/43/21 42/42/21 44/44/21 107/45/21
f 107/45/22 44/44/22 46/46/22 109/47/22
f 109/47/23 46/46/23 48/48/23 111/49/23
f 111/49/24 48/48/24 50/50/24 113/51/24
f 113/51/25 50/50/25 52/52/25 115/53/25
f 115/53/26 52/52/26 54/54/26 117/55/26
f 117/55/27 54/54/27 56/56/27 119/57/27
f 119/57/28 56/56/28 58/58/28 121/59/28
f 121/59/29 58/58/29 60/60/29 123/61/29
f 123/61/30 60/60/30 62/62/30 125/63/30
f 1/64/31 3/65/31 5/66/31 7/67/31 64/68/31 62/69/31 60/70/31 58/71/31 56/72/31 54/73/31 52/74/31 50/75/31 48/76/31 46/77/31 44/78/31 42/79/31 40/80/31 38/81/31 36/82/31 34/83/31 32/84/31 30/85/31 28/86/31 26/87/31 24/88/31 22/89/31 20/90/31 18/91/31 16/92/31 14/93/31 12/94/31 10/95/31
f 125/63/32 62/62/32 64/96/32 127/97/32
f 127/97/33 64/96/33 7/98/33 72/99/33
f 6/100/34 4/101/34 2/102/34 9/103/34 11/104/34 13/105/34 15/106/34 17/107/34 19/108/34 21/109/34 23/110/34 25/111/34 27/112/34 29/113/34 31/114/34 33/115/34 35/116/34 37/117/34 39/118/34 41/119/34 43/120/34 45/121/34 47/122/34 49/123/34 51/124/34 53/125/34 55/126/34 57/127/34 59/128/34 61/129/34 63/130/34 8/131/34
f 63/132/35 128/133/35 71/134/35 8/135/35
f 128/133/36 127/97/36 72/99/36 71/134/36
f 61/136/37 126/137/37 128/133/37 63/132/37
f 126/137/38 125/63/38 127/97/38 128/133/38
f 59/138/39 124/139/39 126/137/39 61/136/39
f 124/139/40 123/61/40 125/63/40 126/137/40
f 57/140/41 122/141/41 124/139/41 59/138/41
f 122/141/42 121/59/42 123/61/42 124/139/42
f 55/142/43 120/143/43 122/141/43 57/140/43
f 120/143/44 119/57/44 121/59/44 122/141/44
f 53/144/45 118/145/45 120/143/45 55/142/45
f 118/145/46 117/55/46 119/57/46 120/143/46
f 51/146/47 116/147/47 118/145/47 53/144/47
f 116/147/48 115/53/48 117/55/48 118/145/48
f 49/148/49 114/149/49 116/147/49 51/146/49
f 114/149/50 113/51/50 115/53/50 116/147/50
f 47/150/51 112/151/51 114/149/51 49/148/51
f 112/151/52 111/49/52 113/51/52 114/149/52
f 45/152/53 110/153/53 112/151/53 47/150/53
f 110/153/54 109/47/54 111/49/54 112/151/54
f 43/154/55 108/155/55 110/153/55 45/152/55
f 108/155/56 107/45/56 109/47/56 110/153/56
f 41/156/57 106/157/57 108/155/57 43/154/57
f 106/157/58 105/43/58 107/45/58 108/155/58
f 39/158/59 104/159/59 106/157/59 41/156/59
f 104/159/60 103/41/60 105/43/60 106/157/60
f 37/160/61 102/161/61 104/159/61 39/158/61
f 102/161/62 101/39/62 103/41/62 104/159/62
f 35/162/63 100/163/63 102/161/63 37/160/63
f 100/163/64 99/37/64 101/39/64 102/161/64
f 33/164/65 98/165/65 100/163/65 35/162/65
f 98/165/66 97/35/66 99/37/66 100/163/66
f 31/166/67 96/167/67 98/165/67 33/164/67
f 96/167/68 95/33/68 97/35/68 98/165/68
f 29/168/69 94/169/69 96/167/69 31/166/69
f 94/169/70 93/31/70 95/33/70 96/167/70
f 27/170/71 92/171/71 94/169/71 29/168/71
f 92/171/72 91/29/72 93/31/72 94/169/72
f 25/172/73 90/173/73 92/171/73 27/170/73
f 90/173/74 89/27/74 91/29/74 92/171/74
f 23/174/75 88/175/75 90/173/75 25/172/75
f 88/175/76 87/25/76 89/27/76 90/173/76
f 21/176/77 86/177/77 88/175/77 23/174/77
f 86/177/78 85/23/78 87/25/78 88/175/78
f 19/178/79 84/179/79 86/177/79 21/176/79
f 84/179/80 83/21/80 85/23/80 86/177/80
f 17/180/81 82/181/81 84/179/81 19/178/81
f 82/181/82 81/19/82 83/21/82 84/179/82
f 15/182/83 80/183/83 82/181/83 17/180/83
f 80/183/84 79/17/84 81/19/84 82/181/84
f 13/184/85 78/185/85 80/183/85 15/182/85
f 78/185/86 77/15/86 79/17/86 80/183/86
f 11/186/87 76/187/87 78/185/87 13/184/87
f 76/187/88 75/13/88 77/15/88 78/185/88
f 9/188/89 74/189/89 76/187/89 11/186/89
f 74/189/90 73/11/90 75/13/90 76/187/90
f 2/190/91 70/191/91 74/189/91 9/188/91
f 70/191/92 69/9/92 73/11/92 74/189/92
f 8/192/93 71/193/93 68/191/93 6/190/93
f 71/193/94 72/7/94 67/9/94 68/191/94
f 4/194/95 66/195/95 70/196/95 2/192/95
f 66/195/96 65/4/96 69/6/96 70/196/96
f 6/197/97 68/198/97 66/195/97 4/194/97
f 68/198/98 67/1/98 65/4/98 66/195/98
