# Blender 4.0.2
# www.blender.org
mtllib Pinball.mtl
o Cube
v 2.640562 0.001361 -2.407410
v 5.000000 -1.000000 -3.000000
v 2.640562 0.001361 2.407410
v 5.000000 -1.000000 3.000000
v -5.000000 -1.000000 -3.000000
v -5.000000 -1.000000 3.000000
v 5.000000 1.000000 3.000000
v -5.000000 1.000000 3.000000
v 5.000000 1.000000 -3.000000
v -5.000000 1.000000 -3.000000
v 5.000000 1.000000 3.000000
v -5.000000 1.000000 3.000000
v 5.000000 1.000000 -3.000000
v -5.000000 1.000000 -3.000000
v 2.640562 1.000000 2.407410
v 2.640562 1.000000 -2.407410
v -0.811598 0.001361 -2.407410
v -4.012349 0.001361 -0.486959
v -1.062726 0.001361 -2.401489
v -1.312306 0.001361 -2.383766
v -1.558799 0.001361 -2.354347
v -1.800685 0.001361 -2.313416
v -2.036473 0.001361 -2.261224
v -2.264709 0.001361 -2.198093
v -2.483986 0.001361 -2.124412
v -2.692952 0.001361 -2.040636
v -2.890320 0.001361 -1.947281
v -3.074871 0.001361 -1.844922
v -3.245468 0.001361 -1.734192
v -3.401060 0.001361 -1.615771
v -3.540687 0.001361 -1.490391
v -3.663488 0.001361 -1.358825
v -3.768707 0.001361 -1.221884
v -3.855693 0.001361 -1.080411
v -3.923912 0.001361 -0.935279
v -3.972943 0.001361 -0.787383
v -4.002482 0.001361 -0.637636
v -4.012349 0.001361 0.486959
v -0.811598 0.001361 2.407410
v -4.002482 0.001361 0.637636
v -3.972943 0.001361 0.787383
v -3.923912 0.001361 0.935279
v -3.855693 0.001361 1.080411
v -3.768707 0.001361 1.221884
v -3.663488 0.001361 1.358825
v -3.540687 0.001361 1.490391
v -3.401060 0.001361 1.615771
v -3.245468 0.001361 1.734192
v -3.074871 0.001361 1.844922
v -2.890320 0.001361 1.947281
v -2.692952 0.001361 2.040636
v -2.483986 0.001361 2.124412
v -2.264709 0.001361 2.198093
v -2.036473 0.001361 2.261224
v -1.800685 0.001361 2.313416
v -1.558799 0.001361 2.354347
v -1.312306 0.001361 2.383766
v -1.062726 0.001361 2.401489
v -0.811598 1.000000 2.407410
v -4.012349 1.000000 0.486959
v -4.999823 1.000000 2.999894
v -1.062726 1.000000 2.401489
v -1.312306 1.000000 2.383766
v -1.558799 1.000000 2.354347
v -1.800685 1.000000 2.313416
v -2.036473 1.000000 2.261224
v -2.264709 1.000000 2.198093
v -2.483986 1.000000 2.124412
v -2.692952 1.000000 2.040636
v -2.890320 1.000000 1.947281
v -3.074871 1.000000 1.844922
v -3.245468 1.000000 1.734192
v -3.401060 1.000000 1.615771
v -3.540687 1.000000 1.490391
v -3.663488 1.000000 1.358825
v -3.768707 1.000000 1.221884
v -3.855693 1.000000 1.080411
v -3.923912 1.000000 0.935279
v -3.972943 1.000000 0.787383
v -4.002482 1.000000 0.637636
v -4.012349 1.000000 -0.486959
v -0.811598 1.000000 -2.407410
v -4.999823 1.000000 -2.999894
v -4.002482 1.000000 -0.637636
v -3.972943 1.000000 -0.787383
v -3.923912 1.000000 -0.935279
v -3.855693 1.000000 -1.080411
v -3.768707 1.000000 -1.221884
v -3.663488 1.000000 -1.358825
v -3.540687 1.000000 -1.490391
v -3.401060 1.000000 -1.615771
v -3.245468 1.000000 -1.734192
v -3.074871 1.000000 -1.844922
v -2.890320 1.000000 -1.947281
v -2.692952 1.000000 -2.040636
v -2.483986 1.000000 -2.124412
v -2.264709 1.000000 -2.198093
v -2.036473 1.000000 -2.261224
v -1.800685 1.000000 -2.313416
v -1.558799 1.000000 -2.354347
v -1.312306 1.000000 -2.383766
v -1.062726 1.000000 -2.401489
v -5.000000 -1.000000 -1.000000
v -5.000000 -1.000000 1.000000
v 5.000000 1.000000 -1.000000
v 5.000000 1.000000 1.000000
v -5.000000 1.000000 1.000000
v -5.000000 1.000000 -1.000000
v 5.000000 -1.000000 1.000000
v 5.000000 -1.000000 -1.000000
v 5.000000 1.000000 -1.000000
v 5.000000 1.000000 1.000000
v -5.000000 1.000000 1.000000
v -5.000000 1.000000 -1.000000
v 4.077672 1.000000 -0.802470
v 4.077672 1.000000 0.802470
v 4.632920 0.001361 -0.802470
v 4.632920 0.001361 0.802470
v 2.640562 0.500680 2.407410
v 2.640562 0.500680 -2.407410
v -4.012349 0.500680 0.486959
v -4.002482 0.500680 0.637636
v -3.972943 0.500680 0.787383
v -3.923912 0.500680 0.935279
v -3.855693 0.500680 1.080411
v -3.768707 0.500680 1.221884
v -3.663488 0.500680 1.358825
v -3.540687 0.500680 1.490391
v -3.401060 0.500680 1.615771
v -3.245468 0.500680 1.734192
v -3.074871 0.500680 1.844922
v -2.890320 0.500680 1.947281
v -2.692952 0.500680 2.040636
v -2.483986 0.500680 2.124412
v -2.264709 0.500680 2.198093
v -2.036473 0.500680 2.261224
v -1.800685 0.500680 2.313416
v -1.558799 0.500680 2.354347
v -1.312306 0.500680 2.383766
v -1.062726 0.500680 2.401489
v -0.811598 0.500680 2.407410
v -0.811598 0.500680 -2.407410
v -1.062726 0.500680 -2.401489
v -1.312306 0.500680 -2.383766
v -1.558799 0.500680 -2.354347
v -1.800685 0.500680 -2.313416
v -2.036473 0.500680 -2.261224
v -2.264709 0.500680 -2.198093
v -2.483986 0.500680 -2.124412
v -2.692952 0.500680 -2.040636
v -2.890320 0.500680 -1.947281
v -3.074871 0.500680 -1.844922
v -3.245468 0.500680 -1.734192
v -3.401060 0.500680 -1.615771
v -3.540687 0.500680 -1.490391
v -3.663488 0.500680 -1.358825
v -3.768707 0.500680 -1.221884
v -3.855693 0.500680 -1.080411
v -3.923912 0.500680 -0.935279
v -3.972943 0.500680 -0.787383
v -4.002482 0.500680 -0.637636
v -4.012349 0.500680 -0.486959
v 4.632920 0.500680 -0.802470
v 4.632920 0.500680 0.802470
v 4.077672 0.001361 -0.802470
v 4.077672 0.001361 0.802470
v 4.077672 0.500680 -0.802470
v 4.077672 0.500680 0.802470
vn -0.0000 -0.0000 1.0000
vn -1.0000 -0.0000 -0.0000
vn -0.0000 -1.0000 -0.0000
vn 1.0000 -0.0000 -0.0000
vn -0.0000 -0.0000 -1.0000
vn -0.0000 1.0000 -0.0000
vn -0.7450 -0.0000 -0.6671
vn 0.9979 -0.0000 -0.0653
vn 0.9811 -0.0000 -0.1935
vn 0.9492 -0.0000 -0.3147
vn 0.9050 -0.0000 -0.4254
vn 0.8519 -0.0000 -0.5238
vn 0.7930 -0.0000 -0.6093
vn 0.7310 -0.0000 -0.6823
vn 0.6681 -0.0000 -0.7440
vn 0.6056 -0.0000 -0.7957
vn 0.5444 -0.0000 -0.8388
vn 0.4850 -0.0000 -0.8745
vn 0.4276 -0.0000 -0.9040
vn 0.3721 -0.0000 -0.9282
vn 0.3185 -0.0000 -0.9479
vn 0.2666 -0.0000 -0.9638
vn 0.2161 -0.0000 -0.9764
vn 0.1668 -0.0000 -0.9860
vn 0.1185 -0.0000 -0.9930
vn 0.0708 -0.0000 -0.9975
vn 0.0236 -0.0000 -0.9997
vn 0.0236 -0.0000 0.9997
vn 0.0708 -0.0000 0.9975
vn 0.1185 -0.0000 0.9930
vn 0.1668 -0.0000 0.9860
vn 0.2161 -0.0000 0.9764
vn 0.2666 -0.0000 0.9638
vn 0.3185 -0.0000 0.9479
vn 0.3721 -0.0000 0.9282
vn 0.4276 -0.0000 0.9040
vn 0.4850 -0.0000 0.8745
vn 0.5444 -0.0000 0.8388
vn 0.6056 -0.0000 0.7957
vn 0.6681 -0.0000 0.7440
vn 0.7310 -0.0000 0.6823
vn 0.7930 -0.0000 0.6093
vn 0.8519 -0.0000 0.5238
vn 0.9050 -0.0000 0.4254
vn 0.9492 -0.0000 0.3147
vn 0.9811 -0.0000 0.1935
vn 0.9979 -0.0000 0.0653
vn -0.7450 -0.0000 0.6671
vt 0.843343 2.233232
vt 0.722744 2.233232
vt 0.498186 0.032284
vt 0.974662 0.032284
vt 0.974662 0.508760
vt 0.498186 0.508760
vt 0.491180 0.210541
vt 0.975853 0.210541
vt 0.975853 0.372099
vt 0.491180 0.372099
vt 0.493793 0.324927
vt 0.955887 0.324927
vt 0.955887 0.472039
vt 0.493793 0.472039
vt 0.459958 0.347578
vt 0.477921 0.347578
vt 0.477921 0.519426
vt 0.459958 0.519426
vt 0.497255 0.031122
vt 0.958148 0.031122
vt 0.958148 0.492015
vt 0.497255 0.492015
vt 1.294643 2.207916
vt 1.544643 2.207916
vt 1.294643 2.124582
vt 1.544643 2.041249
vt 1.544643 1.957916
vt 1.294643 1.957916
vt 0.988257 0.517632
vt 0.937919 0.304025
vt 0.937853 0.221003
vt 0.988257 0.007226
vt 0.988266 0.007217
vt 0.988266 0.177358
vt 0.988266 0.347500
vt 0.988266 0.517642
vt 0.528253 0.330696
vt 0.602273 0.467229
vt 0.477841 0.517642
vt 0.477841 0.347500
vt 0.774479 0.057629
vt 0.602273 0.057629
vt 0.477841 0.007217
vt 0.774479 0.467229
vt 0.722744 2.366976
vt 0.722744 2.433849
vt 0.365544 0.250166
vt 0.362568 0.595234
vt 0.362463 0.620497
vt 0.362149 0.645605
vt 0.361629 0.670402
vt 0.360905 0.694736
vt 0.359982 0.718456
vt 0.358866 0.768755
vt 0.357375 0.790854
vt 0.354157 0.816049
vt 0.340224 0.836541
vt 0.330426 0.857180
vt 0.319982 0.880740
vt 0.318321 0.895638
vt 0.316513 0.913136
vt 0.306886 0.918886
vt 0.299862 0.921097
vt 0.292281 0.922688
vt 0.284485 0.923649
vt 0.276626 0.924235
vt 0.268680 0.925231
vt 0.260686 0.925562
vt 0.209020 0.925562
vt 0.201021 0.925221
vt 0.193030 0.924108
vt 0.185085 0.923141
vt 0.177382 0.921687
vt 0.170088 0.919665
vt 0.163309 0.917051
vt 0.157214 0.913616
vt 0.145805 0.885061
vt 0.138046 0.874708
vt 0.127866 0.852196
vt 0.116074 0.829016
vt 0.112544 0.808319
vt 0.115556 0.810906
vt 0.111664 0.769074
vt 0.109742 0.746164
vt 0.108801 0.722428
vt 0.108077 0.698095
vt 0.107557 0.673298
vt 0.107243 0.620497
vt 0.107138 0.595234
vt 0.110115 0.249285
vt 0.192281 0.109946
vt 0.277425 0.109946
vt 0.843343 2.433849
vt 0.818504 0.466616
vt 0.844916 0.462930
vt 0.861948 0.457467
vt 0.874936 0.451223
vt 0.887080 0.445776
vt 0.895151 0.438437
vt 0.901511 0.430096
vt 0.908412 0.422778
vt 0.914266 0.414841
vt 0.919455 0.406553
vt 0.924542 0.398807
vt 0.928792 0.390366
vt 0.932406 0.381525
vt 0.934901 0.370948
vt 0.936389 0.358549
vt 0.938020 0.348095
vt 0.938894 0.337339
vt 0.938719 0.325597
vt 0.937481 0.313272
vt 0.937599 0.311138
vt 0.937854 0.208185
vt 0.937853 0.195446
vt 0.937854 0.182865
vt 0.937854 0.170518
vt 0.937854 0.158483
vt 0.937853 0.146833
vt 0.937853 0.135640
vt 0.937853 0.124974
vt 0.937854 0.114900
vt 0.937854 0.105480
vt 0.937854 0.096772
vt 0.937854 0.088831
vt 0.937854 0.081704
vt 0.937853 0.075435
vt 0.937854 0.070065
vt 0.937854 0.065625
vt 0.937854 0.062143
vt 0.937854 0.059640
vt 0.937854 0.058132
vt 0.937854 0.057629
vt 0.923362 2.353830
vt 0.923362 2.360108
vt 0.923321 2.360108
vt 0.923362 2.366348
vt 0.923198 2.366348
vt 0.923362 2.372510
vt 0.922994 2.372510
vt 0.923362 2.378557
vt 0.922709 2.378557
vt 0.923362 2.384452
vt 0.922347 2.384452
vt 0.923362 2.390158
vt 0.921908 2.390158
vt 0.923362 2.395640
vt 0.921397 2.395640
vt 0.923362 2.400864
vt 0.920815 2.400864
vt 0.923362 2.405798
vt 0.920167 2.405798
vt 0.923362 2.433849
vt 0.919456 2.429943
vt 0.895311 2.433849
vt 0.895311 2.430654
vt 0.890377 2.433849
vt 0.890377 2.431302
vt 0.885153 2.433849
vt 0.885153 2.431884
vt 0.879671 2.433849
vt 0.879671 2.432395
vt 0.873965 2.433849
vt 0.873965 2.432834
vt 0.868070 2.433849
vt 0.868070 2.433196
vt 0.862023 2.433849
vt 0.862023 2.433480
vt 0.855861 2.433849
vt 0.855861 2.433685
vt 0.849621 2.433849
vt 0.849621 2.433808
vt 0.849621 2.233232
vt 0.849621 2.233273
vt 0.855861 2.233232
vt 0.855861 2.233396
vt 0.862023 2.233232
vt 0.862023 2.233600
vt 0.868070 2.233232
vt 0.868070 2.233884
vt 0.873965 2.233232
vt 0.873965 2.234247
vt 0.879671 2.233232
vt 0.879671 2.234685
vt 0.885153 2.233232
vt 0.885153 2.235197
vt 0.890377 2.233232
vt 0.890377 2.235779
vt 0.895311 2.233232
vt 0.895311 2.236427
vt 0.923362 2.233232
vt 0.919456 2.237138
vt 0.923362 2.261282
vt 0.920167 2.261282
vt 0.923362 2.266216
vt 0.920815 2.266216
vt 0.923362 2.271441
vt 0.921397 2.271441
vt 0.923362 2.276922
vt 0.921908 2.276922
vt 0.923362 2.282629
vt 0.922347 2.282629
vt 0.923362 2.288523
vt 0.922709 2.288523
vt 0.923362 2.294570
vt 0.922994 2.294570
vt 0.923362 2.300733
vt 0.923198 2.300733
vt 0.923362 2.306972
vt 0.923321 2.306972
vt 0.923362 2.313250
vt 0.859948 1.791358
vt 0.859948 1.858230
vt 0.859948 1.925103
vt 0.528253 0.194163
vt 0.477841 0.177358
vt 1.544643 2.124582
vt 1.294643 2.041249
vt 1.294643 2.041249
vt 0.459958 0.003883
vt 0.477921 0.003883
vt 0.477921 0.175730
vt 0.459958 0.175730
vt 0.496780 0.022241
vt 0.963429 0.022241
vt 0.963429 0.177791
vt 0.496780 0.177791
vt 0.963429 0.333341
vt 0.496780 0.333341
vt 0.585256 1.266666
vt 0.835256 1.266666
vt 0.835256 1.350000
vt 0.585256 1.350000
vt 0.463433 0.170151
vt 0.990870 0.170151
vt 0.990870 0.405923
vt 0.463433 0.405923
vt 0.923280 2.306972
vt 0.923034 2.300733
vt 0.922625 2.294570
vt 0.922057 2.288523
vt 0.921332 2.282629
vt 0.920455 2.276922
vt 0.919432 2.271441
vt 0.918268 2.266216
vt 0.916971 2.261282
vt 0.915550 2.241044
vt 0.895311 2.239622
vt 0.890377 2.238326
vt 0.885153 2.237162
vt 0.879671 2.236139
vt 0.873965 2.235262
vt 0.868070 2.234537
vt 0.862023 2.233968
vt 0.855861 2.233560
vt 0.849621 2.233314
vt 0.849621 2.433767
vt 0.855861 2.433521
vt 0.862023 2.433112
vt 0.868070 2.432543
vt 0.873965 2.431818
vt 0.879671 2.430942
vt 0.885153 2.429918
vt 0.890377 2.428755
vt 0.895311 2.427458
vt 0.915550 2.426037
vt 0.916971 2.405798
vt 0.918268 2.400864
vt 0.919432 2.395640
vt 0.920455 2.390158
vt 0.921332 2.384452
vt 0.922057 2.378557
vt 0.922625 2.372510
vt 0.923034 2.366348
vt 0.923280 2.360108
vt 0.859948 1.991975
s 0
usemtl Material
f 142/1/1 120/2/1 16/2/1 82/1/1
f 4/3/1 7/4/1 8/5/1 6/6/1
f 103/7/2 108/8/2 10/9/2 5/10/2
f 104/11/3 109/12/3 4/13/3 6/14/3
f 109/15/4 106/16/4 7/17/4 4/18/4
f 5/19/5 10/20/5 9/21/5 2/22/5
f 11/23/6 12/24/6 8/24/6 7/23/6
f 112/25/6 11/23/6 7/23/6 106/25/6
f 114/26/6 14/27/6 10/27/6 108/26/6
f 14/27/6 13/28/6 9/28/6 10/27/6
f 61/29/6 60/30/6 81/31/6 83/32/6 14/33/6 114/34/6 113/35/6 12/36/6
f 116/37/6 15/38/6 11/39/6 112/40/6
f 83/32/6 82/41/6 16/42/6 13/43/6 14/33/6
f 15/38/6 59/44/6 61/29/6 12/36/6 11/39/6
f 168/45/7 119/46/7 15/46/7 116/45/7
f 1/47/6 17/48/6 19/49/6 20/50/6 21/51/6 22/52/6 23/53/6 24/54/6 25/55/6 26/56/6 27/57/6 28/58/6 29/59/6 30/60/6 31/61/6 32/62/6 33/63/6 34/64/6 35/65/6 36/66/6 37/67/6 18/68/6 38/69/6 40/70/6 41/71/6 42/72/6 43/73/6 44/74/6 45/75/6 46/76/6 47/77/6 48/78/6 49/79/6 50/80/6 51/81/6 52/82/6 53/83/6 54/84/6 55/85/6 56/86/6 57/87/6 58/88/6 39/89/6 3/90/6 166/91/6 165/92/6
f 119/46/5 141/93/5 59/93/5 15/46/5
f 59/44/6 62/94/6 61/29/6
f 62/94/6 63/95/6 61/29/6
f 63/95/6 64/96/6 61/29/6
f 64/96/6 65/97/6 61/29/6
f 65/97/6 66/98/6 61/29/6
f 66/98/6 67/99/6 61/29/6
f 67/99/6 68/100/6 61/29/6
f 68/100/6 69/101/6 61/29/6
f 69/101/6 70/102/6 61/29/6
f 70/102/6 71/103/6 61/29/6
f 71/103/6 72/104/6 61/29/6
f 72/104/6 73/105/6 61/29/6
f 73/105/6 74/106/6 61/29/6
f 74/106/6 75/107/6 61/29/6
f 75/107/6 76/108/6 61/29/6
f 76/108/6 77/109/6 61/29/6
f 77/109/6 78/110/6 61/29/6
f 78/110/6 79/111/6 61/29/6
f 79/111/6 80/112/6 61/29/6
f 80/112/6 60/113/6 61/29/6
f 81/31/6 84/114/6 83/32/6
f 84/114/6 85/115/6 83/32/6
f 85/115/6 86/116/6 83/32/6
f 86/116/6 87/117/6 83/32/6
f 87/117/6 88/118/6 83/32/6
f 88/118/6 89/119/6 83/32/6
f 89/119/6 90/120/6 83/32/6
f 90/120/6 91/121/6 83/32/6
f 91/121/6 92/122/6 83/32/6
f 92/122/6 93/123/6 83/32/6
f 93/123/6 94/124/6 83/32/6
f 94/124/6 95/125/6 83/32/6
f 95/125/6 96/126/6 83/32/6
f 96/126/6 97/127/6 83/32/6
f 97/127/6 98/128/6 83/32/6
f 98/128/6 99/129/6 83/32/6
f 99/129/6 100/130/6 83/32/6
f 100/130/6 101/131/6 83/32/6
f 101/131/6 102/132/6 83/32/6
f 102/132/6 82/133/6 83/32/6
f 121/134/8 60/134/8 80/135/8 122/136/8
f 122/136/9 80/135/9 79/137/9 123/138/9
f 123/138/10 79/137/10 78/139/10 124/140/10
f 124/140/11 78/139/11 77/141/11 125/142/11
f 125/142/12 77/141/12 76/143/12 126/144/12
f 126/144/13 76/143/13 75/145/13 127/146/13
f 127/146/14 75/145/14 74/147/14 128/148/14
f 128/148/15 74/147/15 73/149/15 129/150/15
f 129/150/16 73/149/16 72/151/16 130/152/16
f 130/152/17 72/151/17 71/153/17 131/154/17
f 131/154/18 71/153/18 70/155/18 132/156/18
f 132/156/19 70/155/19 69/157/19 133/158/19
f 133/158/20 69/157/20 68/159/20 134/160/20
f 134/160/21 68/159/21 67/161/21 135/162/21
f 135/162/22 67/161/22 66/163/22 136/164/22
f 136/164/23 66/163/23 65/165/23 137/166/23
f 137/166/24 65/165/24 64/167/24 138/168/24
f 138/168/25 64/167/25 63/169/25 139/170/25
f 139/170/26 63/169/26 62/171/26 140/172/26
f 140/172/27 62/171/27 59/93/27 141/93/27
f 142/1/28 82/1/28 102/173/28 143/174/28
f 143/174/29 102/173/29 101/175/29 144/176/29
f 144/176/30 101/175/30 100/177/30 145/178/30
f 145/178/31 100/177/31 99/179/31 146/180/31
f 146/180/32 99/179/32 98/181/32 147/182/32
f 147/182/33 98/181/33 97/183/33 148/184/33
f 148/184/34 97/183/34 96/185/34 149/186/34
f 149/186/35 96/185/35 95/187/35 150/188/35
f 150/188/36 95/187/36 94/189/36 151/190/36
f 151/190/37 94/189/37 93/191/37 152/192/37
f 152/192/38 93/191/38 92/193/38 153/194/38
f 153/194/39 92/193/39 91/195/39 154/196/39
f 154/196/40 91/195/40 90/197/40 155/198/40
f 155/198/41 90/197/41 89/199/41 156/200/41
f 156/200/42 89/199/42 88/201/42 157/202/42
f 157/202/43 88/201/43 87/203/43 158/204/43
f 158/204/44 87/203/44 86/205/44 159/206/44
f 159/206/45 86/205/45 85/207/45 160/208/45
f 160/208/46 85/207/46 84/209/46 161/210/46
f 161/210/47 84/209/47 81/211/47 162/211/47
f 121/134/4 162/211/4 81/211/4 60/134/4
f 120/212/48 167/213/48 115/213/48 16/212/48
f 167/213/2 168/214/2 116/214/2 115/213/2
f 16/42/6 115/215/6 111/216/6 13/43/6
f 115/215/6 116/37/6 112/40/6 111/216/6
f 12/24/6 113/217/6 107/217/6 8/24/6
f 113/217/6 114/26/6 108/26/6 107/217/6
f 13/28/6 111/218/6 105/219/6 9/28/6
f 111/218/6 112/25/6 106/25/6 105/219/6
f 2/220/4 9/221/4 105/222/4 110/223/4
f 110/223/4 105/222/4 106/16/4 109/15/4
f 5/224/3 2/225/3 110/226/3 103/227/3
f 103/227/3 110/226/3 109/228/3 104/229/3
f 6/230/2 8/231/2 107/232/2 104/233/2
f 104/234/2 107/235/2 108/236/2 103/237/2
f 117/213/2 118/214/2 164/214/2 163/213/2
f 1/212/48 165/213/48 167/213/48 120/212/48
f 38/134/4 18/211/4 162/211/4 121/134/4
f 37/238/47 161/210/47 162/211/47 18/211/47
f 36/239/46 160/208/46 161/210/46 37/238/46
f 35/240/45 159/206/45 160/208/45 36/239/45
f 34/241/44 158/204/44 159/206/44 35/240/44
f 33/242/43 157/202/43 158/204/43 34/241/43
f 32/243/42 156/200/42 157/202/42 33/242/42
f 31/244/41 155/198/41 156/200/41 32/243/41
f 30/245/40 154/196/40 155/198/40 31/244/40
f 29/246/39 153/194/39 154/196/39 30/245/39
f 28/247/38 152/192/38 153/194/38 29/246/38
f 27/248/37 151/190/37 152/192/37 28/247/37
f 26/249/36 150/188/36 151/190/36 27/248/36
f 25/250/35 149/186/35 150/188/35 26/249/35
f 24/251/34 148/184/34 149/186/34 25/250/34
f 23/252/33 147/182/33 148/184/33 24/251/33
f 22/253/32 146/180/32 147/182/32 23/252/32
f 21/254/31 145/178/31 146/180/31 22/253/31
f 20/255/30 144/176/30 145/178/30 21/254/30
f 19/256/29 143/174/29 144/176/29 20/255/29
f 17/1/28 142/1/28 143/174/28 19/256/28
f 58/257/27 140/172/27 141/93/27 39/93/27
f 57/258/26 139/170/26 140/172/26 58/257/26
f 56/259/25 138/168/25 139/170/25 57/258/25
f 55/260/24 137/166/24 138/168/24 56/259/24
f 54/261/23 136/164/23 137/166/23 55/260/23
f 53/262/22 135/162/22 136/164/22 54/261/22
f 52/263/21 134/160/21 135/162/21 53/262/21
f 51/264/20 133/158/20 134/160/20 52/263/20
f 50/265/19 132/156/19 133/158/19 51/264/19
f 49/266/18 131/154/18 132/156/18 50/265/18
f 48/267/17 130/152/17 131/154/17 49/266/17
f 47/268/16 129/150/16 130/152/16 48/267/16
f 46/269/15 128/148/15 129/150/15 47/268/15
f 45/270/14 127/146/14 128/148/14 46/269/14
f 44/271/13 126/144/13 127/146/13 45/270/13
f 43/272/12 125/142/12 126/144/12 44/271/12
f 42/273/11 124/140/11 125/142/11 43/272/11
f 41/274/10 123/138/10 124/140/10 42/273/10
f 40/275/9 122/136/9 123/138/9 41/274/9
f 38/134/8 121/134/8 122/136/8 40/275/8
f 3/46/5 39/93/5 141/93/5 119/46/5
f 166/214/7 3/276/7 119/276/7 168/214/7
f 17/1/1 1/2/1 120/2/1 142/1/1
f 118/214/6 117/213/6 165/213/6 166/214/6
f 117/213/1 163/213/1 167/213/1 165/213/1
f 164/214/5 118/214/5 166/214/5 168/214/5
f 163/213/3 164/214/3 168/214/3 167/213/3
